<svg height="600" width="900" viewBox="0 0 900 600" id="visual" xmlns="http://www.w3.org/2000/svg" xmlns:xlink="http://www.w3.org/1999/xlink" version="1.1"><path d="M0 177L16.7 178.3C33.3 179.7 66.7 182.3 100 181C133.3 179.7 166.7 174.3 200 172.2C233.3 170 266.7 171 300 171.3C333.3 171.7 366.7 171.3 400 171.7C433.3 172 466.7 173 500 172.5C533.3 172 566.7 170 600 176.3C633.3 182.7 666.7 197.3 700 198C733.3 198.7 766.7 185.3 800 187.5C833.3 189.7 866.7 207.3 883.3 216.2L900 225L900 0L883.3 0C866.7 0 833.3 0 800 0C766.7 0 733.3 0 700 0C666.7 0 633.3 0 600 0C566.7 0 533.3 0 500 0C466.7 0 433.3 0 400 0C366.7 0 333.3 0 300 0C266.7 0 233.3 0 200 0C166.7 0 133.3 0 100 0C66.7 0 33.3 0 16.7 0L0 0Z" fill="#e81aff"></path><path d="M0 165L16.7 169.8C33.3 174.7 66.7 184.3 100 185.8C133.3 187.3 166.7 180.7 200 180.3C233.3 180 266.7 186 300 185.2C333.3 184.3 366.7 176.7 400 173.5C433.3 170.3 466.7 171.7 500 173C533.3 174.3 566.7 175.7 600 171.8C633.3 168 666.7 159 700 163.7C733.3 168.3 766.7 186.7 800 196.3C833.3 206 866.7 207 883.3 207.5L900 208L900 0L883.3 0C866.7 0 833.3 0 800 0C766.7 0 733.3 0 700 0C666.7 0 633.3 0 600 0C566.7 0 533.3 0 500 0C466.7 0 433.3 0 400 0C366.7 0 333.3 0 300 0C266.7 0 233.3 0 200 0C166.7 0 133.3 0 100 0C66.7 0 33.3 0 16.7 0L0 0Z" fill="#d71ff9"></path><path d="M0 164L16.7 163.2C33.3 162.3 66.7 160.7 100 165C133.3 169.3 166.7 179.7 200 178.5C233.3 177.3 266.7 164.7 300 160.3C333.3 156 366.7 160 400 161C433.3 162 466.7 160 500 161.2C533.3 162.3 566.7 166.7 600 165C633.3 163.3 666.7 155.7 700 155.7C733.3 155.7 766.7 163.3 800 165.3C833.3 167.3 866.7 163.7 883.3 161.8L900 160L900 0L883.3 0C866.7 0 833.3 0 800 0C766.7 0 733.3 0 700 0C666.7 0 633.3 0 600 0C566.7 0 533.3 0 500 0C466.7 0 433.3 0 400 0C366.7 0 333.3 0 300 0C266.7 0 233.3 0 200 0C166.7 0 133.3 0 100 0C66.7 0 33.3 0 16.7 0L0 0Z" fill="#c723f3"></path><path d="M0 138L16.7 143.7C33.3 149.3 66.7 160.7 100 162.2C133.3 163.7 166.7 155.3 200 149.5C233.3 143.7 266.7 140.3 300 140.2C333.3 140 366.7 143 400 143.3C433.3 143.7 466.7 141.3 500 138C533.3 134.7 566.7 130.3 600 135.2C633.3 140 666.7 154 700 155.7C733.3 157.3 766.7 146.7 800 139.5C833.3 132.3 866.7 128.7 883.3 126.8L900 125L900 0L883.3 0C866.7 0 833.3 0 800 0C766.7 0 733.3 0 700 0C666.7 0 633.3 0 600 0C566.7 0 533.3 0 500 0C466.7 0 433.3 0 400 0C366.7 0 333.3 0 300 0C266.7 0 233.3 0 200 0C166.7 0 133.3 0 100 0C66.7 0 33.3 0 16.7 0L0 0Z" fill="#b625ec"></path><path d="M0 111L16.7 114.8C33.3 118.7 66.7 126.3 100 129.5C133.3 132.7 166.7 131.3 200 134.7C233.3 138 266.7 146 300 147.7C333.3 149.3 366.7 144.7 400 144.7C433.3 144.7 466.7 149.3 500 147.7C533.3 146 566.7 138 600 134C633.3 130 666.7 130 700 132.5C733.3 135 766.7 140 800 141.7C833.3 143.3 866.7 141.7 883.3 140.8L900 140L900 0L883.3 0C866.7 0 833.3 0 800 0C766.7 0 733.3 0 700 0C666.7 0 633.3 0 600 0C566.7 0 533.3 0 500 0C466.7 0 433.3 0 400 0C366.7 0 333.3 0 300 0C266.7 0 233.3 0 200 0C166.7 0 133.3 0 100 0C66.7 0 33.3 0 16.7 0L0 0Z" fill="#a627e5"></path><path d="M0 128L16.7 128C33.3 128 66.7 128 100 126.2C133.3 124.3 166.7 120.7 200 117.3C233.3 114 266.7 111 300 110C333.3 109 366.7 110 400 111.7C433.3 113.3 466.7 115.7 500 113.5C533.3 111.3 566.7 104.7 600 104.7C633.3 104.7 666.7 111.3 700 114.8C733.3 118.3 766.7 118.7 800 117.3C833.3 116 866.7 113 883.3 111.5L900 110L900 0L883.3 0C866.7 0 833.3 0 800 0C766.7 0 733.3 0 700 0C666.7 0 633.3 0 600 0C566.7 0 533.3 0 500 0C466.7 0 433.3 0 400 0C366.7 0 333.3 0 300 0C266.7 0 233.3 0 200 0C166.7 0 133.3 0 100 0C66.7 0 33.3 0 16.7 0L0 0Z" fill="#9528de"></path><path d="M0 107L16.7 108.2C33.3 109.3 66.7 111.7 100 109.5C133.3 107.3 166.7 100.7 200 101.7C233.3 102.7 266.7 111.3 300 110C333.3 108.7 366.7 97.3 400 93.8C433.3 90.3 466.7 94.7 500 99C533.3 103.3 566.7 107.7 600 108.5C633.3 109.3 666.7 106.7 700 108C733.3 109.3 766.7 114.7 800 114C833.3 113.3 866.7 106.7 883.3 103.3L900 100L900 0L883.3 0C866.7 0 833.3 0 800 0C766.7 0 733.3 0 700 0C666.7 0 633.3 0 600 0C566.7 0 533.3 0 500 0C466.7 0 433.3 0 400 0C366.7 0 333.3 0 300 0C266.7 0 233.3 0 200 0C166.7 0 133.3 0 100 0C66.7 0 33.3 0 16.7 0L0 0Z" fill="#8528d6"></path><path d="M0 92L16.7 92.2C33.3 92.3 66.7 92.7 100 89.8C133.3 87 166.7 81 200 79.7C233.3 78.3 266.7 81.7 300 85.5C333.3 89.3 366.7 93.7 400 93.7C433.3 93.7 466.7 89.3 500 85.8C533.3 82.3 566.7 79.7 600 78.5C633.3 77.3 666.7 77.7 700 81.2C733.3 84.7 766.7 91.3 800 92C833.3 92.7 866.7 87.3 883.3 84.7L900 82L900 0L883.3 0C866.7 0 833.3 0 800 0C766.7 0 733.3 0 700 0C666.7 0 633.3 0 600 0C566.7 0 533.3 0 500 0C466.7 0 433.3 0 400 0C366.7 0 333.3 0 300 0C266.7 0 233.3 0 200 0C166.7 0 133.3 0 100 0C66.7 0 33.3 0 16.7 0L0 0Z" fill="#7528ce"></path><path d="M0 76L16.7 76.8C33.3 77.7 66.7 79.3 100 79C133.3 78.7 166.7 76.3 200 75.2C233.3 74 266.7 74 300 75.7C333.3 77.3 366.7 80.7 400 81.8C433.3 83 466.7 82 500 80.8C533.3 79.7 566.7 78.3 600 75.5C633.3 72.7 666.7 68.3 700 66.2C733.3 64 766.7 64 800 63.3C833.3 62.7 866.7 61.3 883.3 60.7L900 60L900 0L883.3 0C866.7 0 833.3 0 800 0C766.7 0 733.3 0 700 0C666.7 0 633.3 0 600 0C566.7 0 533.3 0 500 0C466.7 0 433.3 0 400 0C366.7 0 333.3 0 300 0C266.7 0 233.3 0 200 0C166.7 0 133.3 0 100 0C66.7 0 33.3 0 16.7 0L0 0Z" fill="#6428c6"></path><path d="M0 50L16.7 52.7C33.3 55.3 66.7 60.7 100 62.8C133.3 65 166.7 64 200 63.3C233.3 62.7 266.7 62.3 300 61.3C333.3 60.3 366.7 58.7 400 57.3C433.3 56 466.7 55 500 56.2C533.3 57.3 566.7 60.7 600 61.3C633.3 62 666.7 60 700 59C733.3 58 766.7 58 800 59C833.3 60 866.7 62 883.3 63L900 64L900 0L883.3 0C866.7 0 833.3 0 800 0C766.7 0 733.3 0 700 0C666.7 0 633.3 0 600 0C566.7 0 533.3 0 500 0C466.7 0 433.3 0 400 0C366.7 0 333.3 0 300 0C266.7 0 233.3 0 200 0C166.7 0 133.3 0 100 0C66.7 0 33.3 0 16.7 0L0 0Z" fill="#5327be"></path><path d="M0 47L16.7 47C33.3 47 66.7 47 100 46C133.3 45 166.7 43 200 41C233.3 39 266.7 37 300 36.3C333.3 35.7 366.7 36.3 400 36.7C433.3 37 466.7 37 500 36.5C533.3 36 566.7 35 600 36.3C633.3 37.7 666.7 41.3 700 42.8C733.3 44.3 766.7 43.7 800 43.5C833.3 43.3 866.7 43.7 883.3 43.8L900 44L900 0L883.3 0C866.7 0 833.3 0 800 0C766.7 0 733.3 0 700 0C666.7 0 633.3 0 600 0C566.7 0 533.3 0 500 0C466.7 0 433.3 0 400 0C366.7 0 333.3 0 300 0C266.7 0 233.3 0 200 0C166.7 0 133.3 0 100 0C66.7 0 33.3 0 16.7 0L0 0Z" fill="#4126b6"></path><path d="M0 25L16.7 25.7C33.3 26.3 66.7 27.7 100 27.3C133.3 27 166.7 25 200 24.3C233.3 23.7 266.7 24.3 300 25.8C333.3 27.3 366.7 29.7 400 30.2C433.3 30.7 466.7 29.3 500 29.2C533.3 29 566.7 30 600 29C633.3 28 666.7 25 700 24.3C733.3 23.7 766.7 25.3 800 25.7C833.3 26 866.7 25 883.3 24.5L900 24L900 0L883.3 0C866.7 0 833.3 0 800 0C766.7 0 733.3 0 700 0C666.7 0 633.3 0 600 0C566.7 0 533.3 0 500 0C466.7 0 433.3 0 400 0C366.7 0 333.3 0 300 0C266.7 0 233.3 0 200 0C166.7 0 133.3 0 100 0C66.7 0 33.3 0 16.7 0L0 0Z" fill="#2c24ad"></path></svg>